External Loads File
version=1
nRows=69
nColumns=13
Range=5.000000e-03-10 seconds
endheader
time 	forceRightX 	forceRightY 	forceRightZ 	pointRightX 	pointRightY 	pointRightZ 	forceLeftX 	forceLeftY 	forceLeftZ 	pointLeftX 	pointLeftY 	pointLeftZ 		
2.505000 120.712848 530.753251 -0.000000 0.280688 0.141631 -0.163430 -51.222495 -38.440986 -0.000000 0.253906 0.483840 -0.411282
2.510000 122.524586 471.570559 -0.000000 0.273930 0.140888 -0.163400 -57.964460 -21.365243 -0.000000 0.260399 0.484730 -0.411509
2.515000 123.251072 411.488706 -0.000000 0.267096 0.140665 -0.163338 -64.616959 -1.790780 -0.000000 0.266634 0.485257 -0.411565
2.520000 123.348428 351.633215 -0.000000 0.260075 0.140619 -0.163185 -70.783965 20.625922 -0.000000 0.272722 0.485458 -0.411825
2.525000 122.842256 293.286602 -0.000000 0.252802 0.141093 -0.162884 -76.072375 46.331787 -0.000000 0.278491 0.485297 -0.412132
2.530000 121.528656 237.812871 -0.000000 0.245762 0.141913 -0.162895 -80.343320 75.878082 -0.000000 0.283921 0.484820 -0.412506
2.535000 119.945852 186.132389 -0.000000 0.238647 0.143116 -0.162809 -83.611296 110.122805 -0.000000 0.288984 0.483889 -0.412928
2.540000 118.349611 138.972900 -0.000000 0.231369 0.144760 -0.162843 -86.069594 149.775918 -0.000000 0.293849 0.482743 -0.413426
2.545000 116.600078 96.994521 -0.000000 0.224151 0.146678 -0.163066 -88.349704 194.999268 -0.000000 0.298404 0.481453 -0.413745
2.550000 114.733360 60.353929 -0.000000 0.217084 0.148975 -0.163270 -90.880794 245.601557 -0.000000 0.302999 0.479766 -0.414113
2.555000 112.512212 29.275887 -0.000000 0.210211 0.151335 -0.163490 -94.484490 300.618248 -0.000000 0.307485 0.477898 -0.414532
2.560000 109.853539 3.667756 -0.000000 0.203585 0.154097 -0.163505 -99.480568 358.698422 -0.000000 0.312044 0.475516 -0.414760
2.565000 106.770747 -16.532045 -0.000000 0.197364 0.156924 -0.163393 -106.687406 417.911076 -0.000000 0.316630 0.472961 -0.414924
2.570000 103.465810 -31.936079 -0.000000 0.191281 0.160000 -0.163260 -115.885331 476.315473 -0.000000 0.321256 0.470017 -0.414973
2.575000 100.227883 -43.331755 -0.000000 0.185362 0.163426 -0.162969 -127.009876 531.797385 -0.000000 0.325873 0.466666 -0.414964
2.580000 97.320598 -51.790925 -0.000000 0.179353 0.167098 -0.162744 -139.390744 582.569638 -0.000000 0.330619 0.463021 -0.414944
2.585000 94.925949 -58.367389 -0.000000 0.173259 0.171247 -0.162857 -152.313803 627.248271 -0.000000 0.335410 0.458842 -0.414904
2.590000 93.154052 -63.782200 -0.000000 0.167494 0.175591 -0.162609 -166.061438 664.626166 -0.000000 0.340382 0.454336 -0.414891
2.595000 91.806752 -68.645187 -0.000000 0.161938 0.180415 -0.162318 -179.773646 694.204311 -0.000000 0.345403 0.449436 -0.414793
2.600000 90.722121 -73.068701 -0.000000 0.156629 0.185317 -0.162118 -194.171885 715.546733 -0.000000 0.350154 0.444291 -0.414904
2.605000 89.529788 -77.276684 -0.000000 0.151658 0.190409 -0.161906 -207.788868 729.248995 -0.000000 0.355206 0.438791 -0.414858
2.610000 88.133736 -81.177069 -0.000000 0.147009 0.195834 -0.161739 -221.122145 735.840103 -0.000000 0.360083 0.433078 -0.414887
2.615000 86.405315 -84.815078 -0.000000 0.142610 0.201516 -0.161721 -233.536456 736.598547 -0.000000 0.364908 0.427007 -0.414779
2.620000 84.336207 -88.172109 -0.000000 0.138445 0.207577 -0.161775 -244.841708 732.976131 -0.000000 0.369664 0.420709 -0.414822
2.625000 81.972728 -91.201188 -0.000000 0.134458 0.213953 -0.161912 -254.778207 726.539119 -0.000000 0.374380 0.414153 -0.414893
2.630000 79.571427 -93.669142 -0.000000 0.130870 0.220440 -0.162032 -264.320336 718.334092 -0.000000 0.378754 0.407406 -0.414918
2.635000 77.167286 -95.550918 -0.000000 0.127503 0.227212 -0.162148 -272.424385 709.945885 -0.000000 0.382858 0.400426 -0.414920
2.640000 74.996383 -96.677281 -0.000000 0.124521 0.234183 -0.162281 -279.556822 702.229527 -0.000000 0.386580 0.393326 -0.414887
2.645000 73.089648 -97.088734 -0.000000 0.121703 0.241364 -0.162399 -284.752164 696.407314 -0.000000 0.390127 0.385963 -0.414898
2.650000 71.623783 -96.739978 -0.000000 0.119119 0.248781 -0.162536 -288.474958 692.927269 -0.000000 0.393263 0.378461 -0.415089
2.655000 70.601823 -95.714335 -0.000000 0.116912 0.256372 -0.162549 -290.524205 692.276602 -0.000000 0.396286 0.370727 -0.414959
2.660000 70.059023 -94.050538 -0.000000 0.114771 0.264111 -0.162831 -291.377953 694.460701 -0.000000 0.398705 0.362865 -0.414966
2.665000 69.934031 -91.857651 -0.000000 0.113129 0.271997 -0.162922 -291.007563 699.521454 -0.000000 0.400837 0.354802 -0.414416
2.670000 70.132928 -89.300487 -0.000000 0.111793 0.280127 -0.163069 -289.437712 707.312720 -0.000000 0.402417 0.346644 -0.415094
2.675000 70.525712 -86.608877 -0.000000 0.110841 0.288183 -0.163133 -286.967661 717.422036 -0.000000 0.403615 0.338235 -0.415776
2.680000 70.909707 -84.078540 -0.000000 0.110261 0.296305 -0.163259 -283.773327 729.367821 -0.000000 0.404806 0.329854 -0.415217
2.685000 71.027270 -82.026383 -0.000000 0.110063 0.304566 -0.163408 -279.598916 742.782040 -0.000000 0.405401 0.321406 -0.415251
2.690000 70.757250 -80.620744 -0.000000 0.110278 0.312772 -0.163498 -275.018050 757.004060 -0.000000 0.405657 0.312990 -0.414937
2.695000 69.923140 -80.063455 -0.000000 0.110896 0.321039 -0.163583 -269.486778 771.852377 -0.000000 0.405493 0.304510 -0.414896
2.700000 68.551684 -80.366803 -0.000000 0.111961 0.329226 -0.163612 -263.905044 786.700730 -0.000000 0.405024 0.296190 -0.414970
2.705000 66.448984 -81.681319 -0.000000 0.113373 0.337476 -0.163713 -256.965740 801.737055 -0.000000 0.404143 0.287684 -0.414685
2.710000 63.667356 -83.853563 -0.000000 0.115267 0.345627 -0.163834 -249.880110 816.312999 -0.000000 0.402869 0.279356 -0.414558
2.715000 60.076559 -86.794571 -0.000000 0.117586 0.353732 -0.163943 -241.993084 830.394348 -0.000000 0.401259 0.271056 -0.414466
2.720000 55.653209 -90.291135 -0.000000 0.120208 0.361771 -0.164101 -233.247206 843.748303 -0.000000 0.399315 0.262766 -0.414380
2.725000 50.335763 -94.156479 -0.000000 0.123333 0.370108 -0.164143 -222.512778 856.390332 -0.000000 0.397002 0.254575 -0.414304
2.730000 44.574345 -97.973808 -0.000000 0.126721 0.377725 -0.164365 -212.547389 867.279542 -0.000000 0.394271 0.246575 -0.414246
2.735000 38.323707 -101.674099 -0.000000 0.130455 0.385292 -0.164515 -201.085720 876.717462 -0.000000 0.391260 0.238640 -0.414246
2.740000 31.794763 -105.104982 -0.000000 0.134577 0.392870 -0.164593 -188.193115 884.427097 -0.000000 0.387909 0.230969 -0.414143
2.745000 25.195127 -108.173959 -0.000000 0.138954 0.400240 -0.164957 -174.164499 890.136463 -0.000000 0.384196 0.223453 -0.414073
2.750000 18.553573 -110.860066 -0.000000 0.143672 0.407571 -0.165172 -158.253644 893.773351 -0.000000 0.380154 0.216001 -0.413913
2.755000 12.096665 -113.108330 -0.000000 0.148724 0.414643 -0.165503 -141.721612 894.861044 -0.000000 0.375785 0.208963 -0.413820
2.760000 5.796944 -114.915143 -0.000000 0.154096 0.421611 -0.165571 -123.995004 893.306020 -0.000000 0.371132 0.202194 -0.413659
2.765000 -0.180767 -116.267522 -0.000000 0.159452 0.428264 -0.165969 -106.141253 888.889167 -0.000000 0.366161 0.195656 -0.413532
2.770000 -5.944612 -117.182269 -0.000000 0.165466 0.434579 -0.165910 -87.143261 881.802990 -0.000000 0.360929 0.189343 -0.413387
2.775000 -11.259254 -117.707799 -0.000000 0.171520 0.440747 -0.166221 -68.495180 872.050482 -0.000000 0.355458 0.183443 -0.413223
2.780000 -16.001578 -117.928743 -0.000000 0.177248 0.446910 -0.166696 -50.642752 859.864617 -0.000000 0.349709 0.177735 -0.413060
2.785000 -20.173250 -117.903284 -0.000000 0.183348 0.452743 -0.166770 -33.094943 845.525120 -0.000000 0.343708 0.172378 -0.412824
2.790000 -23.670852 -117.668374 -0.000000 0.189819 0.457910 -0.167310 -16.275561 829.196909 -0.000000 0.337480 0.167367 -0.412683
2.795000 -26.589955 -117.213051 -0.000000 0.196522 0.463264 -0.167750 0.601891 811.021915 -0.000000 0.331024 0.162668 -0.412495
2.800000 -28.761847 -116.597014 -0.000000 0.203270 0.468030 -0.168082 16.238278 791.024986 -0.000000 0.324350 0.158273 -0.412323
2.805000 -30.331822 -115.798434 -0.000000 0.210145 0.472522 -0.168544 31.214749 769.108202 -0.000000 0.317454 0.154325 -0.412210
2.810000 -31.383227 -114.748418 -0.000000 0.217051 0.476578 -0.168649 45.327762 744.982218 -0.000000 0.310392 0.150743 -0.412037
2.815000 -32.127420 -113.285110 -0.000000 0.223954 0.480430 -0.168984 58.882376 718.123700 -0.000000 0.303165 0.147497 -0.411949
2.820000 -32.810849 -111.207465 -0.000000 0.231055 0.483791 -0.169240 72.103577 687.860046 -0.000000 0.295771 0.144720 -0.411847
2.825000 -33.668957 -108.304075 -0.000000 0.238323 0.486712 -0.169437 84.960282 653.515604 -0.000000 0.288214 0.142232 -0.411743
2.830000 -34.812868 -104.358248 -0.000000 0.245525 0.489243 -0.169676 96.661686 614.621539 -0.000000 0.280551 0.140207 -0.411785
2.835000 -36.481467 -99.010904 -0.000000 0.252880 0.491358 -0.169761 107.375041 570.855397 -0.000000 0.272752 0.138625 -0.411796
2.840000 -38.729168 -91.839064 -0.000000 0.260354 0.493006 -0.169809 116.543275 522.411718 -0.000000 0.264878 0.137511 -0.411841
2.845000 -41.490380 -82.364574 -0.000000 0.267747 0.494602 -0.169968 123.485137 470.017113 -0.000000 0.256944 0.136853 -0.411948
